<svg aria-hidden="true" style="position: absolute; width: 0; height: 0; overflow: hidden;" version="1.1" xmlns="http://www.w3.org/2000/svg" xmlns:xlink="http://www.w3.org/1999/xlink">
<defs>
<symbol id="icon-heart" viewBox="0 0 32 32">
<path d="M29.193 5.265c-3.629-3.596-9.432-3.671-13.191-0.288-3.76-3.383-9.561-3.308-13.192 0.288-3.741 3.704-3.741 9.709 0 13.415 1.069 1.059 11.053 10.941 11.053 10.941 1.183 1.172 3.096 1.172 4.278 0 0 0 10.932-10.822 11.053-10.941 3.742-3.706 3.742-9.711-0.001-13.415zM27.768 17.268l-11.053 10.941c-0.393 0.391-1.034 0.391-1.425 0l-11.053-10.941c-2.95-2.92-2.95-7.671 0-10.591 2.844-2.815 7.416-2.914 10.409-0.222l1.356 1.22 1.355-1.22c2.994-2.692 7.566-2.594 10.41 0.222 2.95 2.919 2.95 7.67 0.001 10.591zM9.253 7.501c0.277 0 0.5 0.224 0.5 0.5s-0.224 0.5-0.5 0.5h-0.001c-1.794 0-3.249 1.455-3.249 3.249v0.001c0 0.276-0.224 0.5-0.5 0.5s-0.5-0.224-0.5-0.5v0c0-2.346 1.901-4.247 4.246-4.249 0.002 0 0.002-0.001 0.004-0.001z"></path>
</symbol>
<symbol id="icon-wind1" viewBox="0 0 32 32">
<path d="M30 14c0-2.209-1.795-4-4-4-2.209 0-4 1.789-4 4h2c0-1.105 0.888-2 2-2 1.105 0 2 0.888 2 2 0 1.105-0.89 2-2.004 2h-22.996v2h23.002c2.208 0 3.998-1.795 3.998-4v0zM21 10c0-2.209-1.795-4-4-4-2.209 0-4 1.789-4 3.997v0.003h2c0-1.105 0.888-2 2-2 1.105 0 2 0.888 2 2 0 1.105-0.897 2-2.006 2h-11.994v2h12.004c2.207 0 3.996-1.795 3.996-4v0zM26 23c0 1.657-1.347 3-3 3v0c-1.657 0-3-1.342-3-2.991v-0.009h2c0 0.552 0.444 1 1 1v0c0.552 0 1-0.444 1-1v0c0-0.552-0.449-1-1.007-1h-13.993v-2h14c1.657 0 3 1.347 3 3v0 0z"></path>
</symbol>
<symbol id="icon-cloud-download" viewBox="0 0 32 32">
<path d="M24 4c-0.375 0-0.738 0.059-1.102 0.113-1.394-2.468-3.972-4.113-6.898-4.113-2.988 0-5.568 1.668-6.941 4.098-0.352-0.047-0.702-0.098-1.059-0.098-4.412 0-8 3.59-8 8s3.588 8 8 8h6v6h-4l6 6 6-6h-4v-6h6c4.414 0 8-3.59 8-8s-3.586-8-8-8zM24 16h-16c-2.205 0-4-1.793-4-4 0-2.191 1.943-3.887 4.004-3.945 0.008 0.941 0.172 1.871 0.5 2.746l3.746-1.406c-0.166-0.442-0.25-0.915-0.25-1.395 0-2.207 1.795-4 4-4 1.295 0 2.463 0.641 3.203 1.637-1.933 1.461-3.203 3.758-3.203 6.363h4c0-2.207 1.797-4 4-4s4 1.793 4 4-1.797 4-4 4z"></path>
</symbol>
<symbol id="icon-wind" viewBox="0 0 32 32">
<path d="M26.938 12c-1.656 0-3 1.344-3 3 0 0.353 0.073 0.685 0.184 1h-19.184c-0.552 0-1 0.448-1 1s0.448 1 1 1h22c1.656 0 3-1.344 3-3s-1.344-3-3-3zM4.938 14h12c1.656 0 3-1.344 3-3s-1.344-3-3-3-3 1.344-3 3c0 0.353 0.073 0.685 0.184 1h-9.184c-0.552 0-1 0.448-1 1s0.448 1 1 1zM20.938 20c-0.059 0-0.115 0.013-0.174 0.018-0.039-0.003-0.072-0.018-0.111-0.018h-15.428c-0.711 0-1.287 0.448-1.287 1s0.576 1 1.287 1h12.897c-0.111 0.315-0.184 0.648-0.184 1 0 1.656 1.344 3 3 3s3-1.344 3-3-1.344-3-3-3z"></path>
</symbol>
<symbol id="icon-location" viewBox="0 0 32 32">
<path d="M16 0c-5.523 0-10 4.477-10 10 0 10 10 22 10 22s10-12 10-22c0-5.523-4.477-10-10-10zM16 16c-3.314 0-6-2.686-6-6s2.686-6 6-6 6 2.686 6 6-2.686 6-6 6z"></path>
</symbol>
<symbol id="icon-heart1" viewBox="0 0 32 32">
<path d="M23.6 2c-3.363 0-6.258 2.736-7.599 5.594-1.342-2.858-4.237-5.594-7.601-5.594-4.637 0-8.4 3.764-8.4 8.401 0 9.433 9.516 11.906 16.001 21.232 6.13-9.268 15.999-12.1 15.999-21.232 0-4.637-3.763-8.401-8.4-8.401z"></path>
</symbol>
</defs>
</svg>
